<svg width="60" height="40" viewBox="0 0 60 40" fill="none" xmlns="http://www.w3.org/2000/svg">
<path d="M46.875 22.2223H13.125C12.075 22.2223 11.25 21.2445 11.25 20.0001C11.25 18.7556 12.075 17.7778 13.125 17.7778H46.875C47.925 17.7778 48.75 18.7556 48.75 20.0001C48.75 21.2445 47.925 22.2223 46.875 22.2223Z" fill="#222222"/>
<path d="M22.5 37.7777C22.2541 37.7813 22.0103 37.7238 21.7842 37.609C21.5582 37.4942 21.3549 37.3246 21.1875 37.1111L8.0625 21.5555C7.3125 20.6666 7.3125 19.2888 8.0625 18.3999L21.1875 2.88883C21.9375 1.99995 23.1 1.99995 23.85 2.88883C24.6 3.77772 24.6 5.1555 23.85 6.04439L12.0375 20.0444L23.85 34.0444C24.6 34.9333 24.6 36.3111 23.85 37.1999C23.475 37.6444 22.9875 37.8666 22.5375 37.8666L22.5 37.7777Z" fill="#222222"/>
</svg>
