<svg width="31" height="33" viewBox="0 0 31 33" fill="none" xmlns="http://www.w3.org/2000/svg">
<path d="M13.5 28.8353L5.401 32.3193C4.23389 32.822 3.12528 32.7281 2.07517 32.0376C1.02506 31.3515 0.5 30.378 0.5 29.117V4.3368C0.5 3.33869 0.834388 2.50596 1.50317 1.83863C2.17194 1.1713 3.00467 0.836909 4.00133 0.835464H14.5833C14.891 0.835464 15.1481 0.939464 15.3547 1.14746C15.5612 1.35546 15.6652 1.6133 15.6667 1.92096C15.6681 2.22863 15.5641 2.48574 15.3547 2.6923C15.1452 2.89885 14.8881 3.00213 14.5833 3.00213H4.00133C3.66767 3.00213 3.36144 3.1408 3.08267 3.41813C2.80389 3.69546 2.66522 4.00169 2.66667 4.3368V29.0195C2.66667 29.4918 2.86817 29.8666 3.27117 30.144C3.67417 30.4213 4.09739 30.4625 4.54083 30.2675L13.5 26.4021L22.4592 30.2696C22.9026 30.4632 23.3258 30.4213 23.7288 30.144C24.1318 29.8666 24.3333 29.4911 24.3333 29.0173V17.0855C24.3333 16.7778 24.4373 16.5207 24.6453 16.3141C24.8533 16.1076 25.1112 16.0036 25.4188 16.0021C25.7265 16.0007 25.9836 16.1047 26.1902 16.3141C26.3967 16.5236 26.5 16.7807 26.5 17.0855V29.1148C26.5 30.3758 25.9749 31.3508 24.9248 32.0398C23.8747 32.7288 22.7661 32.822 21.599 32.3193L13.5 28.8353ZM13.5 3.00213H2.66667H15.6667H13.5ZM24.3333 7.33546H21.0833C20.7757 7.33546 20.5186 7.23146 20.312 7.02346C20.1054 6.81546 20.0014 6.55763 20 6.24996C19.9986 5.9423 20.1026 5.68519 20.312 5.47863C20.5214 5.27208 20.7786 5.1688 21.0833 5.1688H24.3333V1.9188C24.3333 1.61113 24.4373 1.35402 24.6453 1.14746C24.8533 0.940909 25.1112 0.836909 25.4188 0.835464C25.7265 0.83402 25.9836 0.93802 26.1902 1.14746C26.3967 1.35691 26.5 1.61402 26.5 1.9188V5.1688H29.75C30.0577 5.1688 30.3148 5.2728 30.5213 5.4808C30.7279 5.6888 30.8319 5.94663 30.8333 6.2543C30.8348 6.56196 30.7308 6.81907 30.5213 7.02563C30.3119 7.23219 30.0548 7.33546 29.75 7.33546H26.5V10.5855C26.5 10.8931 26.396 11.1502 26.188 11.3568C25.98 11.5634 25.7222 11.6674 25.4145 11.6688C25.1068 11.6702 24.8497 11.5662 24.6432 11.3568C24.4366 11.1474 24.3333 10.8902 24.3333 10.5855V7.33546Z" fill="#F0F5ED"/>
</svg>
