<svg width="100" height="101" viewBox="0 0 100 101" fill="none" xmlns="http://www.w3.org/2000/svg">
<path d="M84.375 17.6875H15.625C14.3818 17.6875 13.1895 18.1814 12.3104 19.0604C11.4314 19.9395 10.9375 21.1318 10.9375 22.375V78.625C10.9375 79.8682 11.4314 81.0605 12.3104 81.9396C13.1895 82.8186 14.3818 83.3125 15.625 83.3125H84.375C85.6182 83.3125 86.8105 82.8186 87.6896 81.9396C88.5686 81.0605 89.0625 79.8682 89.0625 78.625V22.375C89.0625 21.1318 88.5686 19.9395 87.6896 19.0604C86.8105 18.1814 85.6182 17.6875 84.375 17.6875ZM15.625 20.8125H84.375C84.7894 20.8125 85.1868 20.9771 85.4799 21.2701C85.7729 21.5632 85.9375 21.9606 85.9375 22.375V66.2812L73.0898 53.4336C72.6544 52.9966 72.1369 52.6499 71.5671 52.4133C70.9973 52.1767 70.3865 52.0549 69.7695 52.0549C69.1526 52.0549 68.5417 52.1767 67.9719 52.4133C67.4022 52.6499 66.8847 52.9966 66.4492 53.4336L57.5312 62.3516L39.2422 44.0586C38.8067 43.6216 38.2892 43.2749 37.7195 43.0383C37.1497 42.8017 36.5388 42.6799 35.9219 42.6799C35.3049 42.6799 34.6941 42.8017 34.1243 43.0383C33.5545 43.2749 33.037 43.6216 32.6016 44.0586L14.0625 62.6094V22.375C14.0625 21.9606 14.2271 21.5632 14.5201 21.2701C14.8132 20.9771 15.2106 20.8125 15.625 20.8125ZM14.0625 78.625V67.0391L34.832 46.2695C34.9771 46.1243 35.1495 46.009 35.3392 45.9304C35.5288 45.8517 35.7322 45.8113 35.9375 45.8113C36.1428 45.8113 36.3462 45.8517 36.5358 45.9304C36.7255 46.009 36.8979 46.1243 37.043 46.2695L70.9609 80.1875H15.625C15.2106 80.1875 14.8132 80.0229 14.5201 79.7299C14.2271 79.4368 14.0625 79.0394 14.0625 78.625ZM84.375 80.1875H75.3906L59.7656 64.5625L68.6836 55.6445C68.8287 55.4993 69.001 55.384 69.1907 55.3054C69.3804 55.2267 69.5837 55.1863 69.7891 55.1863C69.9944 55.1863 70.1977 55.2267 70.3874 55.3054C70.5771 55.384 70.7494 55.4993 70.8945 55.6445L85.9375 70.6992V78.625C85.9375 79.0394 85.7729 79.4368 85.4799 79.7299C85.1868 80.0229 84.7894 80.1875 84.375 80.1875ZM57.8125 39.5625C57.8125 38.9444 57.9958 38.3402 58.3392 37.8263C58.6825 37.3124 59.1706 36.9119 59.7416 36.6754C60.3126 36.4389 60.941 36.377 61.5472 36.4975C62.1534 36.6181 62.7102 36.9158 63.1472 37.3528C63.5843 37.7898 63.8819 38.3467 64.0025 38.9528C64.123 39.559 64.0611 40.1874 63.8246 40.7584C63.5881 41.3294 63.1876 41.8175 62.6737 42.1608C62.1598 42.5042 61.5556 42.6875 60.9375 42.6875C60.1087 42.6875 59.3138 42.3583 58.7278 41.7722C58.1417 41.1862 57.8125 40.3913 57.8125 39.5625Z" fill="#4B4B4B"/>
</svg>
