<svg width="52" height="53" viewBox="0 0 52 53" fill="none" xmlns="http://www.w3.org/2000/svg">
<path fill-rule="evenodd" clip-rule="evenodd" d="M14.6767 14.0356L16.436 43.6063C16.4625 44.047 16.6562 44.461 16.9775 44.7638C17.2988 45.0665 17.7235 45.2353 18.165 45.2356H33.8343C34.2758 45.2353 34.7006 45.0665 35.0219 44.7638C35.3432 44.461 35.5368 44.047 35.5633 43.6063L37.3227 14.0356H14.6767ZM39.9292 14.0356L38.159 43.7601C38.0933 44.8626 37.6091 45.8984 36.8053 46.6559C36.0015 47.4134 34.9388 47.8354 33.8343 47.8356H18.165C17.0605 47.8354 15.9979 47.4134 15.1941 46.6559C14.3903 45.8984 13.9061 44.8626 13.8403 43.7601L12.0702 14.0356H7.58301V12.5189C7.58301 12.2316 7.69714 11.9561 7.90031 11.7529C8.10347 11.5497 8.37902 11.4356 8.66634 11.4356H43.333C43.6203 11.4356 43.8959 11.5497 44.099 11.7529C44.3022 11.9561 44.4163 12.2316 44.4163 12.5189V14.0356H39.9292ZM30.333 6.66895C30.6203 6.66895 30.8959 6.78308 31.099 6.98625C31.3022 7.18941 31.4163 7.46496 31.4163 7.75228V9.26894H20.583V7.75228C20.583 7.46496 20.6971 7.18941 20.9003 6.98625C21.1035 6.78308 21.379 6.66895 21.6663 6.66895H30.333ZM20.583 19.6689H23.183L24.2663 39.1689H21.6663L20.583 19.6689ZM28.8163 19.6689H31.4163L30.333 39.1689H27.733L28.8163 19.6689Z" fill="white"/>
</svg>
