<svg width="52" height="53" viewBox="0 0 52 53" fill="none" xmlns="http://www.w3.org/2000/svg">
<path d="M41.3612 31.4579V41.0779C41.3606 42.4391 40.8197 43.7443 39.8572 44.7068C38.8947 45.6692 37.5895 46.2102 36.2284 46.2108H11.0929C10.4164 46.2105 9.74654 46.0765 9.12194 45.8166C8.49734 45.5566 7.93027 45.1758 7.4533 44.696C6.97633 44.2163 6.59887 43.647 6.34261 43.0208C6.08635 42.3947 5.95634 41.7241 5.96005 41.0476V15.9403C5.95603 15.2648 6.0861 14.5953 6.34273 13.9704C6.59936 13.3456 6.97745 12.7779 7.45508 12.3003C7.93272 11.8227 8.50039 11.4446 9.12522 11.1879C9.75004 10.9313 10.4196 10.8012 11.0951 10.8053H20.7129" stroke="white" stroke-width="1.5" stroke-linecap="round" stroke-linejoin="round"/>
<path d="M41.3611 19.6582L32.5103 10.8052M14.8086 34.4089V29.718C14.8129 28.9445 15.1206 28.2014 15.6644 27.6532L36.3171 7.00054C36.5914 6.72396 36.9178 6.50444 37.2774 6.35463C37.637 6.20482 38.0227 6.12769 38.4123 6.12769C38.8018 6.12769 39.1875 6.20482 39.5471 6.35463C39.9067 6.50444 40.2331 6.72396 40.5074 7.00054L45.1679 11.661C45.445 11.9351 45.665 12.2614 45.8152 12.621C45.9653 12.9806 46.0426 13.3665 46.0426 13.7562C46.0426 14.1459 45.9653 14.5318 45.8152 14.8914C45.665 15.2511 45.445 15.5773 45.1679 15.8514L24.5153 36.504C23.966 37.0492 23.2243 37.3566 22.4504 37.3599H17.7596C16.9769 37.3599 16.2263 37.049 15.6729 36.4955C15.1195 35.9421 14.8086 35.1915 14.8086 34.4089Z" stroke="white" stroke-width="1.5" stroke-linecap="round" stroke-linejoin="round"/>
</svg>
