<svg width="23" height="38" viewBox="0 0 23 38" fill="none" xmlns="http://www.w3.org/2000/svg">
<path d="M1.467 1.3669C1.15799 1.67528 0.912831 2.04158 0.74556 2.44482C0.578288 2.84807 0.492187 3.28034 0.492188 3.7169C0.492187 4.15346 0.578288 4.58574 0.74556 4.98898C0.912831 5.39223 1.15799 5.75852 1.467 6.0669L14.4003 19.0002L1.467 31.9336C1.1584 32.2422 0.913597 32.6085 0.74658 33.0118C0.579564 33.415 0.493599 33.8471 0.493599 34.2836C0.493599 34.72 0.579564 35.1522 0.74658 35.5554C0.913597 35.9586 1.1584 36.325 1.467 36.6336C1.77561 36.9422 2.14198 37.187 2.54519 37.354C2.9484 37.521 3.38057 37.607 3.817 37.607C4.25344 37.607 4.6856 37.521 5.08881 37.354C5.49203 37.187 5.8584 36.9422 6.167 36.6336L21.467 21.3336C21.776 21.0252 22.0212 20.6589 22.1884 20.2556C22.3557 19.8524 22.4418 19.4201 22.4418 18.9836C22.4418 18.547 22.3557 18.1147 22.1884 17.7115C22.0212 17.3082 21.776 16.9419 21.467 16.6336L6.167 1.33357C4.90033 0.0669022 2.767 0.066903 1.467 1.3669Z" fill="white"/>
</svg>
