<svg width="55" height="40" viewBox="0 0 55 40" fill="none" xmlns="http://www.w3.org/2000/svg">
<path d="M22 28.5714L36.2725 20L22 11.4286V28.5714ZM53.79 6.2C54.1475 7.54286 54.395 9.34286 54.56 11.6286C54.7525 13.9143 54.835 15.8857 54.835 17.6L55 20C55 26.2571 54.56 30.8571 53.79 33.8C53.1025 36.3714 51.5075 38.0286 49.0325 38.7429C47.74 39.1143 45.375 39.3714 41.745 39.5429C38.17 39.7429 34.8975 39.8286 31.8725 39.8286L27.5 40C15.9775 40 8.8 39.5429 5.9675 38.7429C3.4925 38.0286 1.8975 36.3714 1.21 33.8C0.8525 32.4571 0.605 30.6571 0.44 28.3714C0.2475 26.0857 0.165 24.1143 0.165 22.4L0 20C0 13.7429 0.44 9.14286 1.21 6.2C1.8975 3.62857 3.4925 1.97143 5.9675 1.25714C7.26 0.885714 9.625 0.628571 13.255 0.457142C16.83 0.257142 20.1025 0.171428 23.1275 0.171428L27.5 0C39.0225 0 46.2 0.457143 49.0325 1.25714C51.5075 1.97143 53.1025 3.62857 53.79 6.2Z" fill="#222222"/>
</svg>
